name C:\Users\u0150099\Documents\master_thesis\3dpredictsim\Results\debug\Fal_s1_mtj_sc_cspx5_oy_TrackAnkleQSubtQ_MTPm_k1_d01_MTJm_nl_MG_exp_table_d01_PF_Natali2010_ls146_FDB_ig21.mot
datacolumns 130
datarows 4
range 1.09646846 1.12936252
endheader
time	pelvis_tilt	pelvis_list	pelvis_rotation	pelvis_tx	pelvis_ty	pelvis_tz	hip_flexion_l	hip_adduction_l	hip_rotation_l	hip_flexion_r	hip_adduction_r	hip_rotation_r	knee_angle_l	knee_angle_r	ankle_angle_l	ankle_angle_r	subtalar_angle_l	subtalar_angle_r	mtj_angle_l	mtj_angle_r	mtp_angle_l	mtp_angle_r	lumbar_extension	lumbar_bending	lumbar_rotation	arm_flex_l	arm_add_l	arm_rot_l	arm_flex_r	arm_add_r	arm_rot_r	elbow_flex_l	elbow_flex_r	pro_sup_l	pro_sup_r	glut_med1_l/activation	glut_med2_l/activation	glut_med3_l/activation	glut_min1_l/activation	glut_min2_l/activation	glut_min3_l/activation	semimem_l/activation	semiten_l/activation	bifemlh_l/activation	bifemsh_l/activation	sar_l/activation	add_long_l/activation	add_brev_l/activation	add_mag1_l/activation	add_mag2_l/activation	add_mag3_l/activation	tfl_l/activation	pect_l/activation	grac_l/activation	glut_max1_l/activation	glut_max2_l/activation	glut_max3_l/activation	iliacus_l/activation	psoas_l/activation	quad_fem_l/activation	gem_l/activation	peri_l/activation	rect_fem_l/activation	vas_med_l/activation	vas_int_l/activation	vas_lat_l/activation	med_gas_l/activation	lat_gas_l/activation	soleus_l/activation	tib_post_l/activation	flex_dig_l/activation	flex_hal_l/activation	tib_ant_l/activation	per_brev_l/activation	per_long_l/activation	per_tert_l/activation	ext_dig_l/activation	ext_hal_l/activation	FDB_l/activation	ercspn_l/activation	intobl_l/activation	extobl_l/activation	glut_med1_r/activation	glut_med2_r/activation	glut_med3_r/activation	glut_min1_r/activation	glut_min2_r/activation	glut_min3_r/activation	semimem_r/activation	semiten_r/activation	bifemlh_r/activation	bifemsh_r/activation	sar_r/activation	add_long_r/activation	add_brev_r/activation	add_mag1_r/activation	add_mag2_r/activation	add_mag3_r/activation	tfl_r/activation	pect_r/activation	grac_r/activation	glut_max1_r/activation	glut_max2_r/activation	glut_max3_r/activation	iliacus_r/activation	psoas_r/activation	quad_fem_r/activation	gem_r/activation	peri_r/activation	rect_fem_r/activation	vas_med_r/activation	vas_int_r/activation	vas_lat_r/activation	med_gas_r/activation	lat_gas_r/activation	soleus_r/activation	tib_post_r/activation	flex_dig_r/activation	flex_hal_r/activation	tib_ant_r/activation	per_brev_r/activation	per_long_r/activation	per_tert_r/activation	ext_dig_r/activation	ext_hal_r/activation	FDB_r/activation	ercspn_r/activation	intobl_r/activation	extobl_r/activation	
          1.09646846	         -2.92412234	         -1.55663481	          4.37157486	          1.45830305	          0.90884721	         -0.00375915	        -13.98477478	          1.51718662	          6.87909089	         26.76087378	          2.82522892	         -2.78835585	        -17.42315392	         -6.61305718	          2.53291942	          1.78938649	          3.17787287	         -1.00459881	         -3.52155602	         -2.41641342	         28.31600908	          5.37640801	         -3.09018032	          0.57482161	         -2.24318903	          4.13967418	        -13.99750798	         19.27580727	         -7.41358071	        -13.44971808	          4.50685378	         38.51556472	         25.70904661	         86.51662706	         86.51662706	          0.26762441	          0.06485710	          0.05000062	          0.39183929	          0.19194842	          0.08273165	          0.05000455	          0.05000051	          0.05000047	          0.05000026	          0.09357893	          0.05000096	          0.05000062	          0.05000144	          0.05000534	          0.05000463	          0.55952725	          0.05000345	          0.05000103	          0.05001222	          0.05000587	          0.05000395	          0.42929770	          0.77028005	          0.05000039	          0.05000101	          0.05000019	          0.46017242	          0.22307172	          0.21889505	          0.18192624	          0.27916398	          0.48881464	          0.19964203	          0.63066449	          0.37467572	          0.64228752	          0.05000002	          0.05000046	          0.44201360	          0.05000015	          0.05000004	          0.13139520	          0.58667959	          0.05000003	          0.05000029	          0.05000023	          0.20388577	          0.05000041	          0.05913724	          0.05000028	          0.05000038	          0.05000162	          0.33373806	          0.12993076	          0.27816021	          0.11567502	          0.05910831	          0.09349069	          0.10436887	          0.15512967	          0.08364372	          0.14035456	          0.05000118	          0.05895475	          0.18586210	          0.05919308	          0.11589642	          0.11969689	          0.05000068	          0.05000048	          0.24932454	          0.05003568	          0.05000288	          0.05000003	          0.05000011	          0.05000010	          0.05000010	          0.05913913	          0.09784409	          0.05913723	          0.13710747	          0.09784438	          0.08272765	          0.35561200	          0.20814974	          0.19950874	          0.16528064	          0.52850069	          0.05000213	          0.33399520	          0.05000009	          0.10811411	          0.13687243	
          1.10743315	         -2.92915314	         -1.72400212	          4.65516352	          1.47612586	          0.90763034	         -0.00341594	        -14.45574079	          1.09538352	          6.77045714	         26.38781824	          3.17327616	         -2.63143706	        -18.11419599	         -7.06068651	          1.30499494	          1.17686602	          3.62821560	         -1.34654506	         -4.91337988	         -1.76395528	         31.87618598	          4.63384164	         -2.88100057	          0.84389464	         -2.35466816	          3.64412736	        -13.95161794	         19.13814194	         -8.23218445	        -13.46335544	          4.34222563	         39.90041882	         25.17624165	         86.51662706	         86.51662706	          0.22752688	          0.05483617	          0.05000008	          0.33129863	          0.16229080	          0.06994892	          0.05001433	          0.05000059	          0.05000041	          0.05001380	          0.07912059	          0.10076441	          0.05002534	          0.05000097	          0.05000317	          0.05000162	          0.60981920	          0.08273062	          0.05000112	          0.05000112	          0.05000062	          0.05000059	          0.36296745	          0.67430411	          0.05000007	          0.05000046	          0.05000082	          0.44102715	          0.19664046	          0.22645610	          0.19759388	          0.23603066	          0.41328858	          0.16879554	          0.55198158	          0.31679584	          0.54310766	          0.05000002	          0.05000012	          0.37376233	          0.05000015	          0.05000003	          0.11109352	          0.49603233	          0.05000001	          0.06994416	          0.05000017	          0.17238427	          0.05913695	          0.05000043	          0.05913745	          0.05913725	          0.05000445	          0.28677347	          0.10985533	          0.23518233	          0.09780222	          0.05000067	          0.09782493	          0.08824357	          0.17822538	          0.18237755	          0.17197106	          0.05000064	          0.05000443	          0.15714496	          0.05004935	          0.12308889	          0.17411242	          0.05000184	          0.05012652	          0.44524009	          0.11340248	          0.05000074	          0.06994423	          0.05782623	          0.06993738	          0.06993433	          0.05000161	          0.08272632	          0.05000001	          0.11592318	          0.08272703	          0.06994569	          0.37467836	          0.27199373	          0.17809529	          0.28550941	          0.56754190	          0.05913727	          0.32538561	          0.05000006	          0.09140954	          0.11572443	
          1.11839783	         -2.93016604	         -1.89512990	          4.92518364	          1.49424834	          0.90637968	         -0.00305666	        -14.85715545	          0.66309399	          6.63425504	         25.99875383	          3.50012053	         -2.43076079	        -18.87076151	         -8.13286914	         -0.13961033	          0.28916810	          4.08033145	         -1.76785902	         -6.42059161	         -0.91215613	         35.72475601	          3.98794231	         -2.65947166	          1.11971153	         -2.45506012	          3.07667932	        -13.91757134	         18.99090798	         -9.05888432	        -13.49718418	          4.37946640	         41.29810401	         24.61611354	         86.51662706	         86.51662706	          0.22815415	          0.05000042	          0.05000035	          0.28011027	          0.13721553	          0.05914124	          0.05000206	          0.05000035	          0.05000049	          0.05000007	          0.06689609	          0.19465267	          0.09117364	          0.05913742	          0.05913704	          0.05915424	          0.53796926	          0.06996506	          0.05000148	          0.05003544	          0.05004603	          0.05913362	          0.30688577	          0.63731907	          0.05494312	          0.05000194	          0.05000013	          0.37288454	          0.19146643	          0.19146821	          0.16706477	          0.19956180	          0.34943181	          0.14271510	          0.46669549	          0.26784819	          0.45919286	          0.05000001	          0.05000009	          0.32818283	          0.05000004	          0.05000001	          0.09392861	          0.41939088	          0.05000064	          0.05913726	          0.06077657	          0.35319376	          0.05000012	          0.30656773	          0.05000030	          0.05000024	          0.05000026	          0.24246451	          0.09288177	          0.20841657	          0.08269093	          0.06787593	          0.08271180	          0.19442062	          0.15068928	          0.15419903	          0.20791199	          0.05000115	          0.06995978	          0.13286494	          0.05000026	          0.21128613	          0.22137918	          0.06041706	          0.05665014	          0.37644707	          0.09588124	          0.10291898	          0.05913727	          0.05913728	          0.05913728	          0.05913727	          0.05915139	          0.06994440	          0.05913732	          0.09801202	          0.06994505	          0.05913851	          0.54214876	          0.28017071	          0.15057798	          0.58723252	          0.59431108	          0.05000004	          0.27511061	          0.05000001	          0.07728597	          0.09784397	
          1.12936252	         -2.92950618	         -2.08506640	          5.17723451	          1.51245478	          0.90523702	         -0.00268384	        -15.12990595	          0.21683047	          6.47636535	         25.59235669	          3.81091255	         -2.20386033	        -19.74511643	         -9.35706367	         -1.90316362	         -0.70115228	          4.48295380	         -2.21811966	         -8.00609412	         -0.22843546	         39.84557648	          3.46507665	         -2.44312976	          1.41885162	         -2.54409456	          2.47769522	        -13.88540402	         18.84963860	         -9.83800372	        -13.54516745	          4.60535906	         42.66227902	         23.98096248	         86.51662706	         86.51662706	          0.19290258	          0.05000007	          0.05000002	          0.31021693	          0.11601471	          0.05000347	          0.05000713	          0.05000020	          0.05000015	          0.05221787	          0.05913767	          0.23460922	          0.07708667	          0.05000043	          0.05000104	          0.05001468	          0.58465578	          0.05915628	          0.05000036	          0.05000055	          0.05000032	          0.05000024	          0.25946933	          0.70272088	          0.05000002	          0.05000012	          0.05000010	          0.31527055	          0.16188319	          0.16188468	          0.14125179	          0.16872771	          0.29544146	          0.12066433	          0.39458684	          0.22646328	          0.38824351	          0.05000003	          0.07256871	          0.27747578	          0.05000221	          0.05000008	          0.07941583	          0.35459122	          0.08543369	          0.05000003	          0.05138606	          0.44899692	          0.34214373	          0.39755054	          0.27899416	          0.26658582	          0.22023097	          0.20500158	          0.16003903	          0.17621468	          0.09790944	          0.05913737	          0.06993215	          0.16438095	          0.12740663	          0.13037427	          0.25930916	          0.05000045	          0.05915077	          0.22369695	          0.28897150	          0.29562628	          0.29787776	          0.05108229	          0.05000072	          0.31828273	          0.08106702	          0.08701729	          0.05000005	          0.05000008	          0.05000007	          0.05000007	          0.05001197	          0.05913736	          0.05000007	          0.12489895	          0.05913793	          0.05000110	          0.63279173	          0.24855075	          0.17580115	          0.76154098	          0.73060500	          0.45117755	          0.30045064	          0.06741361	          0.08272617	          0.08272620	
